<svg xmlns="http://www.w3.org/2000/svg" viewBox="0 0 120 120" width="512" height="512" role="img" aria-label="USBrain">
  <title>USBrain — ícono</title>
  <rect x="10" y="10" width="46" height="46" rx="15" fill="#7B66C2"/>
  <rect x="64" y="10" width="46" height="46" rx="15" fill="#0F2540"/>
  <rect x="10" y="64" width="46" height="46" rx="15" fill="#FF6B56"/>
  <rect x="64" y="64" width="46" height="46" rx="15" fill="#FF7A00"/>
  <circle cx="60" cy="30" r="7.5" fill="#7B66C2"/>
  <circle cx="60" cy="90" r="7.5" fill="#FF7A00"/>
  <circle cx="30" cy="60" r="7.5" fill="#FF6B56"/>
  <circle cx="90" cy="60" r="7.5" fill="#0F2540"/>
  <g stroke="#FAF8F5" stroke-width="3.4" stroke-linecap="round">
    <line x1="60" y1="60" x2="41" y2="42"/>
    <line x1="60" y1="60" x2="79" y2="42"/>
    <line x1="60" y1="60" x2="43" y2="79"/>
    <line x1="60" y1="60" x2="79" y2="79"/>
  </g>
  <g fill="#FAF8F5">
    <circle cx="60" cy="60" r="7"/>
    <circle cx="41" cy="42" r="4.4"/>
    <circle cx="79" cy="42" r="4.4"/>
    <circle cx="43" cy="79" r="4.4"/>
    <circle cx="79" cy="79" r="4.4"/>
  </g>
</svg>
